<?xml version="1.0" encoding="UTF-8"?><svg xmlns="http://www.w3.org/2000/svg" xmlns:xlink="http://www.w3.org/1999/xlink" height="436.9" preserveAspectRatio="xMidYMid meet" version="1.0" viewBox="0.0 0.0 437.1 436.9" width="437.1" zoomAndPan="magnify"><defs><clipPath id="a"><path d="M 0 0 L 437.109375 0 L 437.109375 436.890625 L 0 436.890625 Z M 0 0"/></clipPath></defs><g><g id="change1_1"><path d="M 211.523438 4.695312 L 240.308594 28.425781 L 274.699219 15.152344 L 295.058594 47.015625 L 331.691406 45.496094 L 341.628906 82.375 L 376.917969 92.761719 L 375.464844 131.042969 L 405.957031 152.316406 L 393.257812 188.253906 L 415.964844 218.332031 L 393.257812 248.410156 L 405.957031 284.351562 L 375.464844 305.625 L 376.917969 343.902344 L 341.628906 354.289062 L 331.691406 391.167969 L 295.054688 389.648438 L 274.699219 421.511719 L 240.308594 408.238281 L 211.523438 431.96875 L 182.738281 408.238281 L 148.347656 421.511719 L 127.988281 389.648438 L 91.355469 391.167969 L 81.417969 354.289062 L 46.125 343.902344 L 47.582031 305.621094 L 17.089844 284.351562 L 29.789062 248.410156 L 7.082031 218.332031 L 29.789062 188.253906 L 17.089844 152.316406 L 47.582031 131.042969 L 46.125 92.761719 L 81.417969 82.375 L 91.355469 45.496094 L 127.988281 47.015625 L 148.347656 15.152344 L 182.738281 28.425781 L 211.523438 4.695312" fill="#b52b35"/></g><g id="change2_2"><path d="M 379.554688 218.332031 C 379.367188 263.53125 360.378906 306.476562 327.207031 337.148438 C 293.855469 367.984375 248.261719 382.570312 203.21875 378.632812 C 158.949219 374.761719 117.359375 351.160156 90.46875 315.945312 C 62.84375 279.773438 51.964844 232.710938 60.386719 188.039062 C 68.613281 144.417969 95.417969 105.773438 132.804688 82.042969 C 171.378906 57.5625 219.472656 51.191406 263.296875 63.632812 C 331.671875 83.042969 379.261719 147.667969 379.554688 218.332031 C 379.582031 224.777344 389.582031 224.78125 389.554688 218.332031 C 389.367188 173.273438 371.542969 129.992188 339.933594 97.882812 C 308.441406 65.894531 264.722656 47.898438 219.964844 47.339844 C 175.011719 46.777344 131.226562 64.84375 99.035156 96.039062 C 66.828125 127.257812 48.511719 170.804688 47.582031 215.515625 C 46.648438 260.503906 64.390625 304.457031 95.355469 336.914062 C 126.296875 369.339844 169.671875 387.976562 214.335938 389.277344 C 259.351562 390.589844 303.46875 373.171875 336.191406 342.4375 C 368.839844 311.773438 387.792969 268.566406 389.460938 223.949219 C 389.53125 222.078125 389.546875 220.207031 389.554688 218.332031 C 389.582031 211.882812 379.582031 211.886719 379.554688 218.332031" fill="#302f2f"/></g><g clip-path="url(#a)" id="change2_1"><path d="M 215.019531 8.230469 C 220.292969 12.390625 225.566406 16.550781 230.835938 20.710938 C 234.304688 23.449219 237.773438 26.183594 241.242188 28.921875 C 242.910156 30.234375 245.207031 32.671875 247.304688 33.246094 C 249.6875 33.902344 252.410156 32.34375 254.570312 31.546875 C 258.714844 30.015625 262.859375 28.484375 267.003906 26.953125 C 273.304688 24.628906 279.601562 22.300781 285.902344 19.972656 C 284.019531 19.210938 282.136719 18.441406 280.257812 17.675781 C 283.984375 23.261719 287.714844 28.847656 291.445312 34.433594 C 293.898438 38.105469 296.351562 41.78125 298.804688 45.457031 C 300 47.25 301.394531 50.203125 303.324219 51.335938 C 305.378906 52.539062 308.511719 51.910156 310.753906 51.820312 C 315.167969 51.648438 319.585938 51.472656 324 51.296875 C 330.707031 51.03125 337.417969 50.761719 344.128906 50.496094 C 342.519531 49.273438 340.914062 48.050781 339.308594 46.824219 C 341.128906 53.289062 342.949219 59.753906 344.769531 66.21875 C 345.964844 70.472656 347.164062 74.722656 348.363281 78.976562 C 348.957031 81.09375 349.351562 84.28125 350.980469 85.910156 C 352.605469 87.539062 355.796875 87.933594 357.914062 88.527344 C 362.164062 89.726562 366.417969 90.925781 370.671875 92.121094 C 377.132812 93.941406 383.597656 95.761719 390.0625 97.582031 C 388.839844 95.976562 387.617188 94.367188 386.390625 92.761719 C 386.125 99.472656 385.859375 106.183594 385.59375 112.890625 C 385.417969 117.304688 385.242188 121.722656 385.066406 126.136719 C 384.976562 128.378906 384.351562 131.511719 385.554688 133.566406 C 386.683594 135.496094 389.640625 136.890625 391.433594 138.085938 C 395.109375 140.539062 398.78125 142.992188 402.457031 145.445312 C 408.042969 149.175781 413.628906 152.902344 419.214844 156.632812 C 418.449219 154.75 417.679688 152.867188 416.914062 150.984375 C 414.589844 157.285156 412.261719 163.585938 409.933594 169.886719 C 408.402344 174.027344 406.875 178.171875 405.34375 182.316406 C 404.542969 184.480469 402.984375 187.203125 403.640625 189.582031 C 404.21875 191.683594 406.652344 193.976562 407.96875 195.644531 C 410.707031 199.113281 413.441406 202.582031 416.179688 206.050781 C 420.339844 211.324219 424.496094 216.59375 428.65625 221.867188 C 428.65625 219.511719 428.65625 217.152344 428.65625 214.796875 C 424.496094 220.070312 420.339844 225.339844 416.179688 230.613281 C 413.441406 234.082031 410.707031 237.550781 407.96875 241.019531 C 406.652344 242.6875 404.21875 244.984375 403.640625 247.082031 C 402.984375 249.460938 404.542969 252.183594 405.34375 254.347656 C 406.875 258.492188 408.402344 262.636719 409.933594 266.78125 C 412.261719 273.078125 414.589844 279.378906 416.914062 285.679688 C 417.679688 283.796875 418.449219 281.914062 419.214844 280.03125 C 413.628906 283.761719 408.042969 287.488281 402.457031 291.21875 C 398.78125 293.671875 395.109375 296.125 391.433594 298.578125 C 389.640625 299.777344 386.683594 301.171875 385.554688 303.101562 C 384.351562 305.152344 384.976562 308.285156 385.066406 310.53125 C 385.242188 314.945312 385.417969 319.359375 385.59375 323.773438 C 385.859375 330.484375 386.125 337.195312 386.390625 343.902344 C 387.617188 342.296875 388.839844 340.691406 390.0625 339.082031 C 383.597656 340.902344 377.132812 342.722656 370.671875 344.542969 C 366.417969 345.742188 362.164062 346.9375 357.914062 348.136719 C 355.796875 348.734375 352.605469 349.125 350.980469 350.753906 C 349.351562 352.382812 348.957031 355.574219 348.363281 357.6875 C 347.164062 361.941406 345.964844 366.191406 344.769531 370.445312 C 342.949219 376.910156 341.128906 383.375 339.308594 389.839844 C 340.914062 388.613281 342.519531 387.390625 344.128906 386.167969 C 337.417969 385.902344 330.707031 385.636719 323.996094 385.367188 C 319.582031 385.191406 315.167969 385.019531 310.753906 384.84375 C 308.507812 384.753906 305.375 384.128906 303.320312 385.332031 C 301.394531 386.460938 300 389.417969 298.800781 391.210938 C 296.347656 394.882812 293.894531 398.558594 291.441406 402.234375 C 287.714844 407.816406 283.984375 413.402344 280.257812 418.988281 C 282.136719 418.222656 284.019531 417.457031 285.902344 416.691406 C 279.601562 414.363281 273.304688 412.039062 267.003906 409.710938 C 262.859375 408.183594 258.714844 406.648438 254.570312 405.121094 C 252.410156 404.320312 249.6875 402.765625 247.304688 403.417969 C 245.207031 403.996094 242.910156 406.429688 241.242188 407.746094 C 237.773438 410.480469 234.304688 413.21875 230.835938 415.953125 C 225.566406 420.113281 220.292969 424.273438 215.019531 428.433594 C 217.378906 428.433594 219.734375 428.433594 222.089844 428.433594 C 216.820312 424.273438 211.546875 420.113281 206.273438 415.953125 C 202.808594 413.21875 199.339844 410.480469 195.871094 407.746094 C 194.203125 406.429688 191.90625 403.996094 189.808594 403.417969 C 187.425781 402.765625 184.703125 404.320312 182.542969 405.121094 C 178.398438 406.648438 174.253906 408.183594 170.109375 409.710938 C 163.808594 412.039062 157.507812 414.363281 151.210938 416.691406 C 153.09375 417.457031 154.972656 418.222656 156.855469 418.988281 C 153.128906 413.402344 149.398438 407.816406 145.671875 402.234375 C 143.21875 398.558594 140.765625 394.882812 138.3125 391.210938 C 137.113281 389.417969 135.71875 386.460938 133.789062 385.332031 C 131.734375 384.128906 128.605469 384.753906 126.359375 384.84375 C 121.945312 385.019531 117.53125 385.191406 113.117188 385.367188 C 106.40625 385.636719 99.695312 385.902344 92.984375 386.167969 C 94.59375 387.390625 96.199219 388.613281 97.804688 389.839844 C 95.984375 383.375 94.164062 376.910156 92.34375 370.445312 C 91.148438 366.191406 89.949219 361.941406 88.753906 357.6875 C 88.15625 355.574219 87.765625 352.382812 86.136719 350.753906 C 84.507812 349.125 81.316406 348.734375 79.203125 348.136719 C 74.949219 346.9375 70.695312 345.742188 66.441406 344.542969 C 59.980469 342.722656 53.515625 340.902344 47.050781 339.082031 C 48.273438 340.691406 49.496094 342.296875 50.722656 343.902344 C 50.988281 337.195312 51.253906 330.484375 51.519531 323.773438 C 51.695312 319.359375 51.871094 314.941406 52.046875 310.527344 C 52.136719 308.28125 52.761719 305.152344 51.558594 303.097656 C 50.429688 301.167969 47.472656 299.773438 45.679688 298.578125 C 42.003906 296.125 38.332031 293.671875 34.65625 291.21875 C 29.070312 287.488281 23.484375 283.761719 17.902344 280.03125 C 18.667969 281.914062 19.433594 283.796875 20.199219 285.679688 C 22.527344 279.378906 24.851562 273.078125 27.179688 266.78125 C 28.710938 262.636719 30.238281 258.492188 31.769531 254.347656 C 32.570312 252.183594 34.128906 249.460938 33.472656 247.082031 C 32.894531 244.984375 30.460938 242.6875 29.144531 241.019531 C 26.40625 237.550781 23.671875 234.082031 20.933594 230.613281 C 16.777344 225.339844 12.617188 220.070312 8.457031 214.796875 C 8.457031 217.152344 8.457031 219.511719 8.457031 221.867188 C 12.617188 216.59375 16.777344 211.324219 20.933594 206.050781 C 23.671875 202.582031 26.40625 199.113281 29.144531 195.644531 C 30.460938 193.976562 32.894531 191.683594 33.472656 189.582031 C 34.128906 187.203125 32.570312 184.480469 31.769531 182.316406 C 30.238281 178.171875 28.710938 174.027344 27.179688 169.886719 C 24.851562 163.585938 22.527344 157.285156 20.199219 150.984375 C 19.433594 152.867188 18.667969 154.75 17.902344 156.632812 C 23.484375 152.902344 29.070312 149.175781 34.65625 145.445312 C 38.332031 142.992188 42.003906 140.539062 45.679688 138.085938 C 47.472656 136.890625 50.429688 135.496094 51.558594 133.566406 C 52.761719 131.511719 52.136719 128.378906 52.046875 126.136719 C 51.871094 121.722656 51.695312 117.304688 51.519531 112.890625 C 51.253906 106.183594 50.988281 99.472656 50.722656 92.761719 C 49.496094 94.367188 48.273438 95.976562 47.050781 97.582031 C 53.515625 95.761719 59.980469 93.941406 66.441406 92.121094 C 70.695312 90.925781 74.949219 89.726562 79.203125 88.527344 C 81.316406 87.933594 84.507812 87.539062 86.136719 85.910156 C 87.765625 84.28125 88.15625 81.09375 88.753906 78.976562 C 89.949219 74.722656 91.148438 70.472656 92.34375 66.21875 C 94.164062 59.753906 95.984375 53.289062 97.804688 46.824219 C 96.199219 48.050781 94.59375 49.273438 92.984375 50.496094 C 99.695312 50.761719 106.40625 51.03125 113.117188 51.296875 C 117.53125 51.472656 121.945312 51.648438 126.359375 51.820312 C 128.605469 51.910156 131.734375 52.539062 133.789062 51.335938 C 135.71875 50.203125 137.113281 47.25 138.3125 45.457031 C 140.765625 41.78125 143.21875 38.105469 145.671875 34.433594 C 149.398438 28.847656 153.128906 23.261719 156.855469 17.675781 C 154.972656 18.441406 153.09375 19.210938 151.210938 19.972656 C 157.507812 22.300781 163.808594 24.628906 170.109375 26.953125 C 174.253906 28.484375 178.398438 30.015625 182.542969 31.546875 C 184.703125 32.34375 187.425781 33.902344 189.808594 33.246094 C 191.90625 32.671875 194.203125 30.234375 195.871094 28.921875 C 199.339844 26.183594 202.808594 23.449219 206.273438 20.710938 C 211.546875 16.550781 216.820312 12.390625 222.089844 8.230469 C 227.152344 4.238281 220.023438 -2.785156 215.019531 1.160156 C 204.996094 9.070312 194.96875 16.980469 184.941406 24.890625 C 186.5625 24.464844 188.1875 24.035156 189.808594 23.605469 C 177.828125 19.179688 165.847656 14.757812 153.867188 10.332031 C 151.699219 9.53125 149.394531 10.875 148.222656 12.628906 C 141.132812 23.25 134.039062 33.871094 126.949219 44.492188 C 128.386719 43.667969 129.828125 42.84375 131.265625 42.015625 C 118.507812 41.511719 105.746094 41.003906 92.984375 40.496094 C 90.765625 40.410156 88.75 42.089844 88.164062 44.167969 C 84.703125 56.460938 81.238281 68.753906 77.777344 81.046875 C 78.941406 79.882812 80.105469 78.71875 81.269531 77.554688 C 68.976562 81.015625 56.683594 84.476562 44.390625 87.941406 C 42.3125 88.523438 40.632812 90.542969 40.722656 92.761719 C 41.226562 105.519531 41.734375 118.28125 42.242188 131.042969 C 43.066406 129.601562 43.890625 128.164062 44.71875 126.726562 C 34.097656 133.816406 23.476562 140.90625 12.855469 147.996094 C 11.097656 149.167969 9.753906 151.476562 10.554688 153.644531 C 14.980469 165.625 19.40625 177.605469 23.832031 189.582031 C 24.257812 187.960938 24.6875 186.339844 25.117188 184.71875 C 17.207031 194.746094 9.296875 204.769531 1.386719 214.796875 C -0.460938 217.136719 -0.460938 219.527344 1.386719 221.867188 C 9.296875 231.894531 17.207031 241.921875 25.117188 251.945312 C 24.6875 250.324219 24.257812 248.703125 23.832031 247.082031 C 19.40625 259.0625 14.980469 271.039062 10.554688 283.019531 C 9.753906 285.1875 11.097656 287.496094 12.855469 288.667969 C 23.476562 295.757812 34.097656 302.847656 44.71875 309.9375 C 43.890625 308.5 43.066406 307.058594 42.242188 305.621094 C 41.734375 318.382812 41.226562 331.144531 40.722656 343.902344 C 40.632812 346.125 42.3125 348.140625 44.390625 348.726562 C 56.683594 352.1875 68.976562 355.648438 81.269531 359.109375 C 80.105469 357.945312 78.941406 356.78125 77.777344 355.617188 C 81.238281 367.910156 84.703125 380.203125 88.164062 392.496094 C 88.75 394.574219 90.765625 396.257812 92.984375 396.167969 C 105.746094 395.660156 118.507812 395.15625 131.265625 394.648438 C 129.828125 393.824219 128.386719 392.996094 126.949219 392.171875 C 134.039062 402.792969 141.132812 413.414062 148.222656 424.035156 C 149.394531 425.792969 151.699219 427.136719 153.867188 426.335938 C 165.847656 421.910156 177.828125 417.484375 189.808594 413.0625 C 188.1875 412.632812 186.5625 412.203125 184.941406 411.773438 C 194.96875 419.683594 204.996094 427.59375 215.019531 435.503906 C 217.363281 437.351562 219.75 437.351562 222.089844 435.503906 C 232.117188 427.59375 242.144531 419.683594 252.171875 411.773438 C 250.550781 412.203125 248.925781 412.632812 247.304688 413.0625 C 259.285156 417.484375 271.265625 421.910156 283.246094 426.335938 C 285.414062 427.136719 287.71875 425.792969 288.890625 424.035156 C 295.980469 413.414062 303.070312 402.792969 310.164062 392.171875 C 308.722656 392.996094 307.285156 393.824219 305.84375 394.648438 C 318.605469 395.15625 331.367188 395.660156 344.128906 396.167969 C 346.347656 396.257812 348.363281 394.574219 348.949219 392.496094 C 352.410156 380.203125 355.875 367.910156 359.335938 355.617188 C 358.171875 356.78125 357.007812 357.945312 355.84375 359.109375 C 368.136719 355.648438 380.429688 352.1875 392.722656 348.726562 C 394.800781 348.140625 396.480469 346.125 396.390625 343.902344 C 395.886719 331.144531 395.378906 318.382812 394.871094 305.625 C 394.046875 307.0625 393.222656 308.503906 392.394531 309.941406 C 403.019531 302.851562 413.640625 295.757812 424.261719 288.667969 C 426.015625 287.496094 427.359375 285.1875 426.558594 283.019531 C 422.132812 271.039062 417.707031 259.0625 413.285156 247.082031 C 412.855469 248.703125 412.425781 250.324219 411.996094 251.945312 C 419.90625 241.921875 427.816406 231.894531 435.726562 221.867188 C 437.574219 219.527344 437.574219 217.136719 435.726562 214.796875 C 427.816406 204.769531 419.90625 194.746094 411.996094 184.71875 C 412.425781 186.339844 412.855469 187.960938 413.285156 189.582031 C 417.707031 177.605469 422.132812 165.625 426.558594 153.644531 C 427.359375 151.476562 426.015625 149.167969 424.261719 147.996094 C 413.640625 140.90625 403.019531 133.816406 392.394531 126.726562 C 393.222656 128.164062 394.046875 129.601562 394.871094 131.042969 C 395.378906 118.28125 395.886719 105.519531 396.390625 92.761719 C 396.480469 90.542969 394.800781 88.523438 392.722656 87.941406 C 380.429688 84.476562 368.136719 81.015625 355.84375 77.554688 C 357.007812 78.71875 358.171875 79.882812 359.335938 81.046875 C 355.875 68.753906 352.410156 56.460938 348.949219 44.167969 C 348.363281 42.089844 346.347656 40.410156 344.128906 40.496094 C 331.367188 41.003906 318.609375 41.511719 305.847656 42.015625 C 307.289062 42.84375 308.726562 43.667969 310.164062 44.492188 C 303.074219 33.871094 295.984375 23.25 288.890625 12.628906 C 287.71875 10.875 285.414062 9.53125 283.246094 10.332031 C 271.265625 14.757812 259.285156 19.179688 247.304688 23.605469 C 248.925781 24.035156 250.550781 24.464844 252.171875 24.890625 C 242.144531 16.980469 232.117188 9.070312 222.089844 1.160156 C 217.089844 -2.785156 209.960938 4.238281 215.019531 8.230469" fill="#302f2f"/></g></g></svg>